# xmcd
#
# Track frame offsets: 
#        150
#        18984
#        24363
#        46845
#        60447
#        82135
#        96788
#        112218
#        128242
#        154490
#        174216
#        188906
#        208595
#        229934
#        250746
#        267704
#        290985
#        308190
#
# Disc length: 4275 seconds
#
# Revision: 1
# Processed by: cddbd v1.5.2PL0 Copyright (c) Steve Scherf et al.
# Submitted via: ExactAudioCopy v0.99pb4
#
DISCID=0510b112
DTITLE=Art Tatum - Live Performances 1934-1956 [CD6]
DYEAR=2008
DGENRE=Jazz
TTITLE0=Tenderly
TTITLE1=Flying Home
TTITLE2=The Man I Love
TTITLE3=On The Sunny Side Of The Street
TTITLE4=Sweet Lorraine
TTITLE5=Tea For Two
TTITLE6=Tenderly
TTITLE7=Out Of Nowhere
TTITLE8=Body And Soul
TTITLE9=Sweet Lorraine
TTITLE10=Tea For Two
TTITLE11=Moonglow
TTITLE12=Tenderly
TTITLE13=I've Got The Whole World On A String
TTITLE14=September Song
TTITLE15=Body And Soul
TTITLE16=Where Or When
TTITLE17=Taboo
EXTD=YEAR: 1951
EXTT0=
EXTT1=
EXTT2=
EXTT3=
EXTT4=
EXTT5=
EXTT6=
EXTT7=
EXTT8=
EXTT9=
EXTT10=
EXTT11=
EXTT12=
EXTT13=
EXTT14=
EXTT15=
EXTT16=
EXTT17=
PLAYORDER=
